Oswald-Bold.ufo
<glyph name="zero" format="1">
  <advance width="1147"/>
  <unicode hex="0030"/>
  <outline>
    <contour>
      <point x="709" y="528" type="line" smooth="yes"/>
      <point x="709" y="440"/>
      <point x="694" y="270"/>
      <point x="574" y="270" type="curve" smooth="yes"/>
      <point x="455" y="270"/>
      <point x="440" y="441"/>
      <point x="440" y="528" type="curve" smooth="yes"/>
      <point x="440" y="1269" type="line" smooth="yes"/>
      <point x="440" y="1360"/>
      <point x="446" y="1528"/>
      <point x="574" y="1528" type="curve" smooth="yes"/>
      <point x="700" y="1528"/>
      <point x="709" y="1360"/>
      <point x="709" y="1269" type="curve" smooth="yes"/>
    </contour>
    <contour>
      <point x="89" y="528" type="line" smooth="yes"/>
      <point x="89" y="224"/>
      <point x="241" y="-35"/>
      <point x="574" y="-35" type="curve" smooth="yes"/>
      <point x="902" y="-35"/>
      <point x="1058" y="227"/>
      <point x="1058" y="528" type="curve" smooth="yes"/>
      <point x="1058" y="1269" type="line" smooth="yes"/>
      <point x="1058" y="1580"/>
      <point x="914" y="1834"/>
      <point x="574" y="1834" type="curve" smooth="yes"/>
      <point x="232" y="1834"/>
      <point x="89" y="1581"/>
      <point x="89" y="1269" type="curve" smooth="yes"/>
    </contour>
  </outline>
</glyph>
<glyph name="four" format="1">
  <advance width="1117"/>
  <unicode hex="0034"/>
  <outline>
    <contour>
      <point x="576" y="0" type="line"/>
      <point x="921" y="0" type="line"/>
      <point x="921" y="437" type="line"/>
      <point x="1089" y="437" type="line"/>
      <point x="1089" y="717" type="line"/>
      <point x="921" y="717" type="line"/>
      <point x="921" y="1801" type="line"/>
      <point x="512" y="1801" type="line"/>
      <point x="72" y="719" type="line"/>
      <point x="72" y="437" type="line"/>
      <point x="576" y="437" type="line"/>
    </contour>
    <contour>
      <point x="380" y="717" type="line"/>
      <point x="575" y="1257" type="line"/>
      <point x="576" y="717" type="line"/>
    </contour>
  </outline>
</glyph>
<glyph name="five" format="1">
  <advance width="1143"/>
  <unicode hex="0035"/>
  <outline>
    <contour>
      <point x="116" y="571" type="line"/>
      <point x="116" y="242"/>
      <point x="210" y="-35"/>
      <point x="590" y="-35" type="curve" smooth="yes"/>
      <point x="992" y="-35"/>
      <point x="1070" y="309"/>
      <point x="1070" y="640" type="curve" smooth="yes"/>
      <point x="1070" y="922"/>
      <point x="985" y="1193"/>
      <point x="653" y="1193" type="curve" smooth="yes"/>
      <point x="587" y="1193"/>
      <point x="522" y="1169"/>
      <point x="465" y="1134" type="curve"/>
      <point x="478" y="1459" type="line"/>
      <point x="1011" y="1459" type="line"/>
      <point x="1011" y="1801" type="line"/>
      <point x="154" y="1801" type="line"/>
      <point x="154" y="767" type="line"/>
      <point x="449" y="767" type="line"/>
      <point x="472" y="826"/>
      <point x="522" y="907"/>
      <point x="595" y="907" type="curve" smooth="yes"/>
      <point x="724" y="907"/>
      <point x="730" y="738"/>
      <point x="730" y="645" type="curve" smooth="yes"/>
      <point x="730" y="526"/>
      <point x="745" y="260"/>
      <point x="574" y="260" type="curve" smooth="yes"/>
      <point x="466" y="260"/>
      <point x="460" y="401"/>
      <point x="462" y="571" type="curve"/>
    </contour>
  </outline>
</glyph>
<glyph name="seven" format="1">
  <advance width="843"/>
  <unicode hex="0037"/>
  <outline>
    <contour>
      <point x="171" y="0" type="line"/>
      <point x="510" y="0" type="line"/>
      <point x="826" y="1622" type="line"/>
      <point x="820" y="1799" type="line"/>
      <point x="45" y="1799" type="line"/>
      <point x="45" y="1496" type="line"/>
      <point x="483" y="1496" type="line"/>
    </contour>
  </outline>
</glyph>
<glyph name="eight" format="1">
  <advance width="1119"/>
  <unicode hex="0038"/>
  <outline>
    <contour>
      <point x="240" y="952" type="curve"/>
      <point x="106" y="844"/>
      <point x="86" y="690"/>
      <point x="86" y="528" type="curve" smooth="yes"/>
      <point x="86" y="199"/>
      <point x="210" y="-31"/>
      <point x="570" y="-31" type="curve" smooth="yes"/>
      <point x="932" y="-31"/>
      <point x="1054" y="198"/>
      <point x="1054" y="528" type="curve" smooth="yes"/>
      <point x="1054" y="691"/>
      <point x="1031" y="844"/>
      <point x="898" y="952" type="curve"/>
      <point x="998" y="1053"/>
      <point x="1029" y="1199"/>
      <point x="1029" y="1337" type="curve" smooth="yes"/>
      <point x="1029" y="1633"/>
      <point x="882" y="1836"/>
      <point x="570" y="1836" type="curve" smooth="yes"/>
      <point x="259" y="1836"/>
      <point x="108" y="1635"/>
      <point x="108" y="1337" type="curve" smooth="yes"/>
      <point x="108" y="1199"/>
      <point x="141" y="1054"/>
    </contour>
    <contour>
      <point x="570" y="804" type="curve" smooth="yes"/>
      <point x="701" y="804"/>
      <point x="714" y="618"/>
      <point x="714" y="508" type="curve" smooth="yes"/>
      <point x="714" y="412"/>
      <point x="714" y="251"/>
      <point x="570" y="251" type="curve" smooth="yes"/>
      <point x="427" y="251"/>
      <point x="425" y="411"/>
      <point x="425" y="508" type="curve" smooth="yes"/>
      <point x="425" y="618"/>
      <point x="440" y="804"/>
    </contour>
    <contour>
      <point x="570" y="1074" type="curve" smooth="yes"/>
      <point x="457" y="1074"/>
      <point x="455" y="1274"/>
      <point x="455" y="1367" type="curve" smooth="yes"/>
      <point x="455" y="1436"/>
      <point x="469" y="1561"/>
      <point x="570" y="1561" type="curve" smooth="yes"/>
      <point x="672" y="1561"/>
      <point x="683" y="1434"/>
      <point x="683" y="1367" type="curve" smooth="yes"/>
      <point x="683" y="1275"/>
      <point x="683" y="1074"/>
    </contour>
  </outline>
</glyph>
<glyph name="nine" format="1">
  <advance width="1145"/>
  <unicode hex="0039"/>
  <outline>
    <contour>
      <point x="111" y="489" type="line"/>
      <point x="120" y="194"/>
      <point x="264" y="-29"/>
      <point x="576" y="-29" type="curve" smooth="yes"/>
      <point x="965" y="-29"/>
      <point x="1061" y="332"/>
      <point x="1061" y="652" type="curve" smooth="yes"/>
      <point x="1061" y="1212" type="line" smooth="yes"/>
      <point x="1061" y="1512"/>
      <point x="921" y="1835"/>
      <point x="576" y="1835" type="curve" smooth="yes"/>
      <point x="222" y="1835"/>
      <point x="91" y="1519"/>
      <point x="91" y="1212" type="curve" smooth="yes"/>
      <point x="91" y="922"/>
      <point x="177" y="665"/>
      <point x="514" y="665" type="curve" smooth="yes"/>
      <point x="583" y="665"/>
      <point x="652" y="681"/>
      <point x="713" y="715" type="curve"/>
      <point x="714" y="670" type="line"/>
      <point x="714" y="569"/>
      <point x="725" y="271"/>
      <point x="576" y="271" type="curve" smooth="yes"/>
      <point x="455" y="271"/>
      <point x="452" y="425"/>
      <point x="452" y="519" type="curve"/>
      <point x="111" y="519" type="line"/>
    </contour>
    <contour>
      <point x="712" y="1034" type="line"/>
      <point x="683" y="989"/>
      <point x="631" y="953"/>
      <point x="576" y="953" type="curve" smooth="yes"/>
      <point x="440" y="953"/>
      <point x="442" y="1132"/>
      <point x="442" y="1228" type="curve" smooth="yes"/>
      <point x="442" y="1321"/>
      <point x="441" y="1530"/>
      <point x="576" y="1530" type="curve" smooth="yes"/>
      <point x="696" y="1530"/>
      <point x="712" y="1358"/>
      <point x="712" y="1271" type="curve" smooth="yes"/>
    </contour>
  </outline>
</glyph>
<glyph name="semicolon" format="1">
  <advance width="510"/>
  <unicode hex="003B"/>
  <outline>
    <contour>
      <point x="87" y="897" type="line"/>
      <point x="408" y="897" type="line"/>
      <point x="408" y="1213" type="line"/>
      <point x="87" y="1213" type="line"/>
    </contour>
    <contour>
      <point x="154" y="-95" type="line"/>
      <point x="437" y="-137"/>
      <point x="408" y="124"/>
      <point x="408" y="466" type="curve"/>
      <point x="85" y="466" type="line"/>
      <point x="85" y="148" type="line"/>
      <point x="195" y="148" type="line"/>
      <point x="194" y="64"/>
      <point x="186" y="71"/>
      <point x="114" y="71" type="curve"/>
    </contour>
  </outline>
</glyph>
<glyph name="A" format="1">
  <advance width="1135"/>
  <unicode hex="0041"/>
  <outline>
    <contour>
      <point x="379" y="0" type="line"/>
      <point x="449" y="385" type="line"/>
      <point x="684" y="385" type="line"/>
      <point x="758" y="0" type="line"/>
      <point x="1117" y="0" type="line"/>
      <point x="729" y="1800" type="line"/>
      <point x="407" y="1800" type="line"/>
      <point x="18" y="0" type="line"/>
    </contour>
    <contour>
      <point x="474" y="609" type="line"/>
      <point x="569" y="1277" type="line"/>
      <point x="660" y="609" type="line"/>
    </contour>
    <contour>
      <point x="568" y="1800" type="move" name="top"/>
    </contour>
  </outline>
</glyph>
<glyph name="B" format="1">
  <advance width="1140"/>
  <unicode hex="0042"/>
  <outline>
    <contour>
      <point x="107" y="0" type="line"/>
      <point x="551" y="0" type="line"/>
      <point x="905" y="0"/>
      <point x="1078" y="168"/>
      <point x="1078" y="531" type="curve" smooth="yes"/>
      <point x="1078" y="756"/>
      <point x="992" y="928"/>
      <point x="757" y="985" type="curve"/>
      <point x="938" y="1046"/>
      <point x="1030" y="1142"/>
      <point x="1030" y="1335" type="curve" smooth="yes"/>
      <point x="1030" y="1724"/>
      <point x="786" y="1800"/>
      <point x="478" y="1800" type="curve"/>
      <point x="107" y="1800" type="line"/>
    </contour>
    <contour>
      <point x="471" y="257" type="line"/>
      <point x="471" y="853" type="line"/>
      <point x="507" y="853" type="line"/>
      <point x="676" y="853"/>
      <point x="725" y="729"/>
      <point x="725" y="556" type="curve" smooth="yes"/>
      <point x="725" y="348"/>
      <point x="697" y="257"/>
      <point x="505" y="257" type="curve"/>
    </contour>
    <contour>
      <point x="471" y="1092" type="line"/>
      <point x="471" y="1556" type="line"/>
      <point x="491" y="1556" type="line"/>
      <point x="613" y="1557"/>
      <point x="698" y="1558"/>
      <point x="698" y="1344" type="curve" smooth="yes"/>
      <point x="698" y="1205"/>
      <point x="669" y="1092"/>
      <point x="531" y="1092" type="curve"/>
    </contour>
  </outline>
</glyph>
<glyph name="I" format="1">
  <advance width="578"/>
  <unicode hex="0049"/>
  <outline>
    <contour>
      <point x="292" y="1800" type="move" name="top"/>
    </contour>
    <contour>
      <point x="292" y="0" type="move" name="bot"/>
    </contour>
    <contour>
      <point x="107" y="0" type="line"/>
      <point x="471" y="0" type="line"/>
      <point x="471" y="1800" type="line"/>
      <point x="107" y="1800" type="line"/>
    </contour>
  </outline>
</glyph>
<glyph name="J" format="1">
  <advance width="691"/>
  <unicode hex="004A"/>
  <outline>
    <contour>
      <point x="0" y="-34" type="line"/>
      <point x="179" y="-34" type="line"/>
      <point x="518" y="-34"/>
      <point x="584" y="121"/>
      <point x="584" y="432" type="curve"/>
      <point x="584" y="1800" type="line"/>
      <point x="220" y="1800" type="line"/>
      <point x="220" y="435" type="line"/>
      <point x="220" y="256"/>
      <point x="174" y="220"/>
      <point x="0" y="222" type="curve"/>
    </contour>
  </outline>
</glyph>
<glyph name="P" format="1">
  <advance width="1030"/>
  <unicode hex="0050"/>
  <outline>
    <contour>
      <point x="107" y="0" type="line"/>
      <point x="471" y="0" type="line"/>
      <point x="471" y="770" type="line"/>
      <point x="473" y="770" type="line" smooth="yes"/>
      <point x="795" y="772"/>
      <point x="991" y="878"/>
      <point x="991" y="1290" type="curve" smooth="yes"/>
      <point x="991" y="1608"/>
      <point x="866" y="1800"/>
      <point x="542" y="1800" type="curve" smooth="yes"/>
      <point x="107" y="1800" type="line"/>
    </contour>
    <contour>
      <point x="471" y="1027" type="line"/>
      <point x="471" y="1541" type="line"/>
      <point x="491" y="1541" type="line" smooth="yes"/>
      <point x="645" y="1541"/>
      <point x="646" y="1439"/>
      <point x="646" y="1297" type="curve" smooth="yes"/>
      <point x="646" y="1114"/>
      <point x="645" y="1027"/>
      <point x="486" y="1027" type="curve" smooth="yes"/>
    </contour>
  </outline>
</glyph>
<glyph name="S" format="1">
  <advance width="1073"/>
  <unicode hex="0053"/>
  <outline>
    <contour>
      <point x="549" y="1798" type="move" name="top"/>
    </contour>
    <contour>
      <point x="57" y="515" type="line"/>
      <point x="71" y="233"/>
      <point x="219" y="-37"/>
      <point x="564" y="-37" type="curve" smooth="yes"/>
      <point x="815" y="-37"/>
      <point x="1027" y="135"/>
      <point x="1027" y="393" type="curve" smooth="yes"/>
      <point x="1027" y="671"/>
      <point x="888" y="840"/>
      <point x="703" y="1005" type="curve" smooth="yes"/>
      <point x="661" y="1043"/>
      <point x="616" y="1080"/>
      <point x="570" y="1119" type="curve" smooth="yes"/>
      <point x="484" y="1191"/>
      <point x="416" y="1271"/>
      <point x="416" y="1400" type="curve" smooth="yes"/>
      <point x="416" y="1476"/>
      <point x="450" y="1558"/>
      <point x="536" y="1558" type="curve" smooth="yes"/>
      <point x="632" y="1558"/>
      <point x="651" y="1436"/>
      <point x="651" y="1351" type="curve" smooth="yes"/>
      <point x="651" y="1323"/>
      <point x="648" y="1301"/>
      <point x="648" y="1278" type="curve"/>
      <point x="1024" y="1330" type="line"/>
      <point x="1024" y="1359"/>
      <point x="1025" y="1367"/>
      <point x="1025" y="1373" type="curve" smooth="yes"/>
      <point x="1025" y="1628"/>
      <point x="822" y="1837"/>
      <point x="566" y="1837" type="curve" smooth="yes"/>
      <point x="263" y="1837"/>
      <point x="58" y="1658"/>
      <point x="58" y="1363" type="curve" smooth="yes"/>
      <point x="58" y="1104"/>
      <point x="205" y="972"/>
      <point x="347" y="852" type="curve" smooth="yes"/>
      <point x="460" y="756" type="line"/>
      <point x="565" y="664"/>
      <point x="673" y="530"/>
      <point x="673" y="380" type="curve" smooth="yes"/>
      <point x="673" y="304"/>
      <point x="651" y="242"/>
      <point x="565" y="242" type="curve" smooth="yes"/>
      <point x="439" y="242"/>
      <point x="426" y="428"/>
      <point x="426" y="586" type="curve"/>
    </contour>
  </outline>
</glyph>
<glyph name="T" format="1">
  <advance width="921"/>
  <unicode hex="0054"/>
  <outline>
    <contour>
      <point x="281" y="0" type="line"/>
      <point x="645" y="0" type="line"/>
      <point x="645" y="1528" type="line"/>
      <point x="904" y="1528" type="line"/>
      <point x="904" y="1800" type="line"/>
      <point x="17" y="1800" type="line"/>
      <point x="17" y="1528" type="line"/>
      <point x="281" y="1528" type="line"/>
    </contour>
  </outline>
</glyph>
<glyph name="V" format="1">
  <advance width="1076"/>
  <unicode hex="0056"/>
  <outline>
    <contour>
      <point x="359" y="0" type="line"/>
      <point x="692" y="0" type="line"/>
      <point x="1048" y="1800" type="line"/>
      <point x="708" y="1800" type="line"/>
      <point x="532" y="709" type="line"/>
      <point x="373" y="1800" type="line"/>
      <point x="28" y="1800" type="line"/>
    </contour>
  </outline>
</glyph>
<glyph name="W" format="1">
  <advance width="1486"/>
  <unicode hex="0057"/>
  <outline>
    <contour>
      <point x="281" y="0" type="line"/>
      <point x="592" y="0" type="line"/>
      <point x="740" y="1178" type="line"/>
      <point x="891" y="0" type="line"/>
      <point x="1202" y="0" type="line"/>
      <point x="1454" y="1800" type="line"/>
      <point x="1143" y="1800" type="line"/>
      <point x="1026" y="615" type="line"/>
      <point x="875" y="1800" type="line"/>
      <point x="608" y="1800" type="line"/>
      <point x="454" y="608" type="line"/>
      <point x="342" y="1800" type="line"/>
      <point x="32" y="1800" type="line"/>
    </contour>
  </outline>
</glyph>
<glyph name="X" format="1">
  <advance width="1103"/>
  <unicode hex="0058"/>
  <outline>
    <contour>
      <point x="36" y="0" type="line"/>
      <point x="380" y="0" type="line"/>
      <point x="550" y="595" type="line"/>
      <point x="722" y="0" type="line"/>
      <point x="1065" y="0" type="line"/>
      <point x="778" y="937" type="line"/>
      <point x="1069" y="1800" type="line"/>
      <point x="731" y="1800" type="line"/>
      <point x="549" y="1262" type="line"/>
      <point x="380" y="1800" type="line"/>
      <point x="34" y="1800" type="line"/>
      <point x="327" y="931" type="line"/>
    </contour>
  </outline>
</glyph>
<glyph name="Y" format="1">
  <advance width="1035"/>
  <unicode hex="0059"/>
  <outline>
    <contour>
      <point x="515" y="1800" type="move" name="top"/>
    </contour>
    <contour>
      <point x="341" y="0" type="line"/>
      <point x="693" y="0" type="line"/>
      <point x="693" y="595" type="line"/>
      <point x="1032" y="1800" type="line"/>
      <point x="699" y="1800" type="line"/>
      <point x="638" y="1540"/>
      <point x="575" y="1269"/>
      <point x="514" y="1009" type="curve"/>
      <point x="346" y="1800" type="line"/>
      <point x="3" y="1800" type="line"/>
      <point x="341" y="595" type="line"/>
    </contour>
  </outline>
</glyph>
<glyph name="g" format="1">
  <advance width="965"/>
  <unicode hex="0067"/>
  <outline>
    <contour>
      <point x="957" y="1335" type="line" smooth="yes"/>
      <point x="873" y="1335"/>
      <point x="769" y="1317"/>
      <point x="712" y="1252" type="curve"/>
      <point x="655" y="1313"/>
      <point x="566" y="1335"/>
      <point x="480" y="1335" type="curve" smooth="yes"/>
      <point x="195" y="1335"/>
      <point x="83" y="1094"/>
      <point x="83" y="848" type="curve" smooth="yes"/>
      <point x="83" y="721"/>
      <point x="123" y="587"/>
      <point x="185" y="474" type="curve"/>
      <point x="144" y="422"/>
      <point x="52" y="302"/>
      <point x="52" y="248" type="curve" smooth="yes"/>
      <point x="52" y="209"/>
      <point x="133" y="162"/>
      <point x="169" y="144" type="curve"/>
      <point x="89" y="86"/>
      <point x="32" y="-12"/>
      <point x="32" y="-106" type="curve" smooth="yes"/>
      <point x="32" y="-328"/>
      <point x="351" y="-341"/>
      <point x="513" y="-341" type="curve" smooth="yes"/>
      <point x="749" y="-341"/>
      <point x="963" y="-281"/>
      <point x="963" y="5" type="curve" smooth="yes"/>
      <point x="963" y="222"/>
      <point x="681" y="252"/>
      <point x="496" y="279" type="curve" smooth="yes"/>
      <point x="406" y="292"/>
      <point x="338" y="305"/>
      <point x="338" y="339" type="curve" smooth="yes"/>
      <point x="338" y="348"/>
      <point x="361" y="393"/>
      <point x="361" y="393" type="curve"/>
      <point x="361" y="393"/>
      <point x="428" y="378"/>
      <point x="469" y="378" type="curve" smooth="yes"/>
      <point x="728" y="378"/>
      <point x="870" y="587"/>
      <point x="870" y="823" type="curve" smooth="yes"/>
      <point x="870" y="897"/>
      <point x="867" y="980"/>
      <point x="828" y="1050" type="curve"/>
      <point x="864" y="1086"/>
      <point x="922" y="1094"/>
      <point x="971" y="1094" type="curve"/>
      <point x="999" y="1335" type="line"/>
    </contour>
    <contour>
      <point x="368" y="79" type="line"/>
      <point x="458" y="75"/>
      <point x="641" y="65"/>
      <point x="641" y="-37" type="curve" smooth="yes"/>
      <point x="641" y="-110"/>
      <point x="552" y="-105"/>
      <point x="521" y="-105" type="curve" smooth="yes"/>
      <point x="462" y="-105"/>
      <point x="299" y="-101"/>
      <point x="299" y="-46" type="curve" smooth="yes"/>
      <point x="299" y="0"/>
      <point x="323" y="46"/>
      <point x="344" y="79" type="curve"/>
    </contour>
    <contour>
      <point x="472" y="632" type="curve" smooth="yes"/>
      <point x="396" y="632"/>
      <point x="395" y="793"/>
      <point x="395" y="851" type="curve" smooth="yes"/>
      <point x="395" y="964"/>
      <point x="398" y="1102"/>
      <point x="477" y="1102" type="curve" smooth="yes"/>
      <point x="553" y="1102"/>
      <point x="554" y="922"/>
      <point x="554" y="864" type="curve" smooth="yes"/>
      <point x="554" y="803"/>
      <point x="553" y="632"/>
    </contour>
  </outline>
</glyph>
<glyph name="r" format="1">
  <advance width="714"/>
  <unicode hex="0072"/>
  <outline>
    <contour>
      <point x="429" y="1305" type="move" name="top"/>
    </contour>
    <contour>
      <point x="264" y="0" type="move" name="bot"/>
    </contour>
    <contour>
      <point x="94" y="0" type="line"/>
      <point x="429" y="0" type="line"/>
      <point x="429" y="876" type="line" smooth="yes"/>
      <point x="429" y="981"/>
      <point x="477" y="1040"/>
      <point x="569" y="1040" type="curve" smooth="yes"/>
      <point x="608" y="1040"/>
      <point x="643" y="1034"/>
      <point x="680" y="1030" type="curve"/>
      <point x="700" y="1314" type="line"/>
      <point x="669" y="1319"/>
      <point x="640" y="1324"/>
      <point x="609" y="1324" type="curve" smooth="yes"/>
      <point x="532" y="1324"/>
      <point x="472" y="1269"/>
      <point x="429" y="1199" type="curve"/>
      <point x="429" y="1305" type="line"/>
      <point x="94" y="1305" type="line"/>
    </contour>
  </outline>
</glyph>
<glyph name="s" format="1">
  <advance width="874"/>
  <unicode hex="0073"/>
  <outline>
    <contour>
      <point x="51" y="315" type="line"/>
      <point x="107" y="116"/>
      <point x="259" y="-29"/>
      <point x="469" y="-29" type="curve" smooth="yes"/>
      <point x="676" y="-29"/>
      <point x="850" y="120"/>
      <point x="850" y="335" type="curve" smooth="yes"/>
      <point x="850" y="490"/>
      <point x="730" y="620"/>
      <point x="615" y="724" type="curve" smooth="yes"/>
      <point x="553" y="779" type="line"/>
      <point x="465" y="853"/>
      <point x="371" y="937"/>
      <point x="371" y="1003" type="curve" smooth="yes"/>
      <point x="371" y="1042"/>
      <point x="395" y="1085"/>
      <point x="445" y="1085" type="curve" smooth="yes"/>
      <point x="536" y="1085"/>
      <point x="587" y="958"/>
      <point x="615" y="886" type="curve"/>
      <point x="857" y="969" type="line"/>
      <point x="806" y="1154"/>
      <point x="656" y="1334"/>
      <point x="455" y="1334" type="curve" smooth="yes"/>
      <point x="241" y="1334"/>
      <point x="33" y="1218"/>
      <point x="33" y="983" type="curve" smooth="yes"/>
      <point x="33" y="821"/>
      <point x="145" y="702"/>
      <point x="262" y="600" type="curve" smooth="yes"/>
      <point x="317" y="553" type="line" smooth="yes"/>
      <point x="422" y="463"/>
      <point x="517" y="384"/>
      <point x="517" y="292" type="curve" smooth="yes"/>
      <point x="517" y="250"/>
      <point x="504" y="218"/>
      <point x="454" y="218" type="curve" smooth="yes"/>
      <point x="370" y="218"/>
      <point x="331" y="340"/>
      <point x="309" y="407" type="curve"/>
    </contour>
    <contour>
      <point x="432" y="1303" type="move" name="top"/>
    </contour>
    <contour>
      <point x="466" y="-3" type="move" name="bot"/>
    </contour>
  </outline>
</glyph>
<glyph name="t" format="1">
  <advance width="656"/>
  <unicode hex="0074"/>
  <outline>
    <contour>
      <point x="433" y="0" type="move" name="bot"/>
    </contour>
    <contour>
      <point x="121" y="448" type="line" smooth="yes"/>
      <point x="121" y="220"/>
      <point x="150" y="-15"/>
      <point x="434" y="-15" type="curve" smooth="yes"/>
      <point x="500" y="-15"/>
      <point x="561" y="-15"/>
      <point x="627" y="5" type="curve"/>
      <point x="647" y="266" type="line"/>
      <point x="614" y="261"/>
      <point x="582" y="260"/>
      <point x="549" y="260" type="curve" smooth="yes"/>
      <point x="478" y="260"/>
      <point x="458" y="299"/>
      <point x="458" y="367" type="curve" smooth="yes"/>
      <point x="458" y="1080" type="line"/>
      <point x="620" y="1080" type="line"/>
      <point x="620" y="1305" type="line"/>
      <point x="458" y="1305" type="line"/>
      <point x="458" y="1734" type="line"/>
      <point x="121" y="1734" type="line"/>
      <point x="121" y="1305" type="line"/>
      <point x="25" y="1305" type="line"/>
      <point x="25" y="1080" type="line"/>
      <point x="121" y="1080" type="line"/>
    </contour>
  </outline>
</glyph>
<glyph name="y" format="1">
  <advance width="872"/>
  <unicode hex="0079"/>
  <outline>
    <contour>
      <point x="433" y="1304" type="move" name="top"/>
    </contour>
    <contour>
      <point x="87" y="-311" type="line"/>
      <point x="130" y="-311" type="line" smooth="yes"/>
      <point x="344" y="-311"/>
      <point x="526" y="-269"/>
      <point x="576" y="-35" type="curve" smooth="yes"/>
      <point x="861" y="1305" type="line"/>
      <point x="552" y="1305" type="line"/>
      <point x="446" y="577" type="line"/>
      <point x="325" y="1305" type="line"/>
      <point x="18" y="1305" type="line"/>
      <point x="47" y="1168"/>
      <point x="205" y="499"/>
      <point x="255" y="225" type="curve" smooth="yes"/>
      <point x="265" y="172"/>
      <point x="270" y="134"/>
      <point x="270" y="117" type="curve" smooth="yes"/>
      <point x="270" y="-17"/>
      <point x="222" y="-75"/>
      <point x="87" y="-78" type="curve"/>
    </contour>
  </outline>
</glyph>
<glyph name="braceleft" format="1">
  <advance width="762"/>
  <unicode hex="007B"/>
  <outline>
    <contour>
      <point x="682" y="158" type="line"/>
      <point x="476" y="157"/>
      <point x="496" y="348"/>
      <point x="485" y="546" type="curve" smooth="yes"/>
      <point x="477" y="692"/>
      <point x="453" y="843"/>
      <point x="310" y="922" type="curve"/>
      <point x="460" y="1019"/>
      <point x="487" y="1280"/>
      <point x="487" y="1439" type="curve" smooth="yes"/>
      <point x="487" y="1623"/>
      <point x="488" y="1686"/>
      <point x="682" y="1685" type="curve"/>
      <point x="682" y="1907" type="line"/>
      <point x="318" y="1907"/>
      <point x="200" y="1824"/>
      <point x="200" y="1439" type="curve" smooth="yes"/>
      <point x="200" y="1341"/>
      <point x="226" y="1064"/>
      <point x="70" y="1065" type="curve"/>
      <point x="70" y="778" type="line"/>
      <point x="225" y="780"/>
      <point x="200" y="656"/>
      <point x="200" y="532" type="curve" smooth="yes"/>
      <point x="200" y="164"/>
      <point x="278" y="-64"/>
      <point x="682" y="-64" type="curve"/>
    </contour>
  </outline>
</glyph>
<glyph name="exclamdown" format="1">
  <advance width="498"/>
  <unicode hex="00A1"/>
  <outline>
    <contour>
      <point x="131" y="0" type="line"/>
      <point x="400" y="0" type="line"/>
      <point x="400" y="1180" type="line"/>
      <point x="131" y="1180" type="line"/>
    </contour>
    <contour>
      <point x="76" y="1233" type="line"/>
      <point x="400" y="1233" type="line"/>
      <point x="400" y="1550" type="line"/>
      <point x="76" y="1550" type="line"/>
    </contour>
  </outline>
</glyph>
<glyph name="section" format="1">
  <advance width="1028"/>
  <unicode hex="00A7"/>
  <outline>
    <contour>
      <point x="101" y="348" type="line"/>
      <point x="153" y="144"/>
      <point x="280" y="-18"/>
      <point x="508" y="-18" type="curve" smooth="yes"/>
      <point x="733" y="-18"/>
      <point x="910" y="99"/>
      <point x="910" y="339" type="curve" smooth="yes"/>
      <point x="910" y="450"/>
      <point x="842" y="547"/>
      <point x="761" y="617" type="curve"/>
      <point x="863" y="682"/>
      <point x="910" y="787"/>
      <point x="910" y="907" type="curve" smooth="yes"/>
      <point x="910" y="1101"/>
      <point x="742" y="1235"/>
      <point x="579" y="1334" type="curve" smooth="yes"/>
      <point x="535" y="1361"/>
      <point x="488" y="1382"/>
      <point x="451" y="1406" type="curve" smooth="yes"/>
      <point x="418" y="1427"/>
      <point x="393" y="1463"/>
      <point x="393" y="1504" type="curve" smooth="yes"/>
      <point x="393" y="1576"/>
      <point x="436" y="1619"/>
      <point x="508" y="1619" type="curve" smooth="yes"/>
      <point x="606" y="1619"/>
      <point x="664" y="1501"/>
      <point x="694" y="1423" type="curve"/>
      <point x="914" y="1496" type="line"/>
      <point x="866" y="1700"/>
      <point x="733" y="1861"/>
      <point x="508" y="1861" type="curve" smooth="yes"/>
      <point x="283" y="1861"/>
      <point x="104" y="1744"/>
      <point x="104" y="1504" type="curve" smooth="yes"/>
      <point x="104" y="1390"/>
      <point x="189" y="1314"/>
      <point x="278" y="1257" type="curve"/>
      <point x="161" y="1196"/>
      <point x="104" y="1081"/>
      <point x="104" y="951" type="curve" smooth="yes"/>
      <point x="104" y="742"/>
      <point x="268" y="657"/>
      <point x="412" y="576" type="curve" smooth="yes"/>
      <point x="457" y="551"/>
      <point x="500" y="526"/>
      <point x="535" y="498" type="curve" smooth="yes"/>
      <point x="587" y="456"/>
      <point x="623" y="407"/>
      <point x="623" y="339" type="curve" smooth="yes"/>
      <point x="623" y="267"/>
      <point x="580" y="224"/>
      <point x="508" y="224" type="curve" smooth="yes"/>
      <point x="411" y="224"/>
      <point x="350" y="343"/>
      <point x="322" y="421" type="curve"/>
    </contour>
    <contour>
      <point x="497" y="822" type="curve" smooth="yes"/>
      <point x="447" y="852"/>
      <point x="393" y="889"/>
      <point x="393" y="951" type="curve" smooth="yes"/>
      <point x="393" y="1005"/>
      <point x="429" y="1056"/>
      <point x="474" y="1084" type="curve"/>
      <point x="517" y="1049" type="line" smooth="yes"/>
      <point x="565" y="1008"/>
      <point x="623" y="949"/>
      <point x="623" y="907" type="curve" smooth="yes"/>
      <point x="623" y="853"/>
      <point x="584" y="818"/>
      <point x="541" y="795" type="curve"/>
      <point x="528" y="804"/>
      <point x="513" y="813"/>
    </contour>
  </outline>
</glyph>
<glyph name="ordfeminine" format="1">
  <advance width="906"/>
  <unicode hex="00AA"/>
  <outline>
    <contour>
      <point x="459" y="664" type="line"/>
      <point x="683" y="664" type="line"/>
      <point x="614" y="955"/>
      <point x="826" y="1565"/>
      <point x="382" y="1565" type="curve" smooth="yes"/>
      <point x="192" y="1565"/>
      <point x="95" y="1413"/>
      <point x="93" y="1238" type="curve"/>
      <point x="301" y="1238" type="line"/>
      <point x="301" y="1289"/>
      <point x="306" y="1390"/>
      <point x="378" y="1390" type="curve" smooth="yes"/>
      <point x="437" y="1390"/>
      <point x="441" y="1306"/>
      <point x="441" y="1265" type="curve" smooth="yes"/>
      <point x="441" y="1179" type="line"/>
      <point x="277" y="1127"/>
      <point x="60" y="1068"/>
      <point x="60" y="862" type="curve" smooth="yes"/>
      <point x="60" y="749"/>
      <point x="155" y="653"/>
      <point x="269" y="653" type="curve" smooth="yes"/>
      <point x="342" y="653"/>
      <point x="404" y="691"/>
      <point x="446" y="749" type="curve"/>
    </contour>
    <contour>
      <point x="441" y="903" type="line"/>
      <point x="423" y="866"/>
      <point x="384" y="837"/>
      <point x="343" y="837" type="curve" smooth="yes"/>
      <point x="301" y="837"/>
      <point x="285" y="870"/>
      <point x="285" y="908" type="curve" smooth="yes"/>
      <point x="285" y="981"/>
      <point x="387" y="1036"/>
      <point x="441" y="1067" type="curve"/>
    </contour>
  </outline>
</glyph>
<glyph name="registered" format="1">
  <advance width="1619"/>
  <unicode hex="00AE"/>
  <outline>
    <contour>
      <point x="534" y="251" type="line"/>
      <point x="720" y="251" type="line"/>
      <point x="720" y="641" type="line"/>
      <point x="778" y="641" type="line"/>
      <point x="907" y="251" type="line"/>
      <point x="1108" y="251" type="line"/>
      <point x="1056" y="384"/>
      <point x="978" y="541"/>
      <point x="952" y="682" type="curve"/>
      <point x="1040" y="735"/>
      <point x="1078" y="816"/>
      <point x="1078" y="918" type="curve" smooth="yes"/>
      <point x="1078" y="1109"/>
      <point x="986" y="1210"/>
      <point x="791" y="1210" type="curve" smooth="yes"/>
      <point x="534" y="1210" type="line"/>
    </contour>
    <contour>
      <point x="720" y="766" type="line"/>
      <point x="720" y="1062" type="line"/>
      <point x="777" y="1062" type="line" smooth="yes"/>
      <point x="865" y="1062"/>
      <point x="888" y="999"/>
      <point x="888" y="922" type="curve" smooth="yes"/>
      <point x="888" y="800"/>
      <point x="858" y="766"/>
      <point x="739" y="766" type="curve" smooth="yes"/>
    </contour>
    <contour>
      <point x="799" y="-15" type="curve" smooth="yes"/>
      <point x="1203" y="-15"/>
      <point x="1516" y="326"/>
      <point x="1516" y="723" type="curve" smooth="yes"/>
      <point x="1516" y="1121"/>
      <point x="1204" y="1461"/>
      <point x="799" y="1461" type="curve" smooth="yes"/>
      <point x="395" y="1461"/>
      <point x="83" y="1121"/>
      <point x="83" y="723" type="curve" smooth="yes"/>
      <point x="83" y="324"/>
      <point x="395" y="-15"/>
    </contour>
    <contour>
      <point x="799" y="163" type="curve" smooth="yes"/>
      <point x="498" y="163"/>
      <point x="284" y="430"/>
      <point x="284" y="719" type="curve" smooth="yes"/>
      <point x="284" y="1008"/>
      <point x="498" y="1275"/>
      <point x="799" y="1275" type="curve" smooth="yes"/>
      <point x="1100" y="1275"/>
      <point x="1313" y="1007"/>
      <point x="1313" y="719" type="curve" smooth="yes"/>
      <point x="1313" y="431"/>
      <point x="1100" y="163"/>
    </contour>
  </outline>
</glyph>
<glyph name="twosuperior" format="1">
  <advance width="696"/>
  <unicode hex="00B2"/>
  <outline>
    <contour>
      <point x="70" y="583" type="line"/>
      <point x="617" y="583" type="line"/>
      <point x="617" y="742" type="line"/>
      <point x="307" y="742" type="line"/>
      <point x="346" y="793"/>
      <point x="409" y="866"/>
      <point x="468" y="945" type="curve" smooth="yes"/>
      <point x="546" y="1048"/>
      <point x="617" y="1160"/>
      <point x="617" y="1245" type="curve" smooth="yes"/>
      <point x="617" y="1415"/>
      <point x="515" y="1518"/>
      <point x="344" y="1518" type="curve" smooth="yes"/>
      <point x="165" y="1518"/>
      <point x="70" y="1404"/>
      <point x="70" y="1231" type="curve"/>
      <point x="293" y="1231" type="line"/>
      <point x="293" y="1269"/>
      <point x="286" y="1360"/>
      <point x="344" y="1360" type="curve" smooth="yes"/>
      <point x="400" y="1360"/>
      <point x="394" y="1282"/>
      <point x="394" y="1245" type="curve" smooth="yes"/>
      <point x="394" y="1196"/>
      <point x="356" y="1123"/>
      <point x="306" y="1045" type="curve" smooth="yes"/>
      <point x="223" y="917"/>
      <point x="106" y="778"/>
      <point x="70" y="731" type="curve"/>
    </contour>
  </outline>
</glyph>
<glyph name="ordmasculine" format="1">
  <advance width="965"/>
  <unicode hex="00BA"/>
  <outline>
    <contour>
      <point x="249" y="710" type="line" smooth="yes"/>
      <point x="249" y="803"/>
      <point x="240" y="964"/>
      <point x="369" y="964" type="curve" smooth="yes"/>
      <point x="500" y="964"/>
      <point x="485" y="805"/>
      <point x="485" y="710" type="curve" smooth="yes"/>
      <point x="485" y="471" type="line" smooth="yes"/>
      <point x="485" y="376"/>
      <point x="500" y="216"/>
      <point x="369" y="216" type="curve" smooth="yes"/>
      <point x="240" y="216"/>
      <point x="249" y="379"/>
      <point x="249" y="471" type="curve"/>
    </contour>
    <contour>
      <point x="5" y="430" type="line" smooth="yes"/>
      <point x="5" y="171"/>
      <point x="86" y="-15"/>
      <point x="374" y="-15" type="curve" smooth="yes"/>
      <point x="645" y="-15"/>
      <point x="743" y="185"/>
      <point x="743" y="430" type="curve" smooth="yes"/>
      <point x="743" y="752" type="line" smooth="yes"/>
      <point x="743" y="994"/>
      <point x="644" y="1196"/>
      <point x="374" y="1196" type="curve" smooth="yes"/>
      <point x="86" y="1196"/>
      <point x="5" y="1010"/>
      <point x="5" y="752" type="curve"/>
    </contour>
  </outline>
</glyph>
<glyph name="onehalf" format="1">
  <advance width="1694"/>
  <unicode hex="00BD"/>
  <outline>
    <contour>
      <point x="198" y="648" type="line"/>
      <point x="421" y="648" type="line"/>
      <point x="421" y="1583" type="line"/>
      <point x="335" y="1583" type="line"/>
      <point x="264" y="1496"/>
      <point x="169" y="1434"/>
      <point x="69" y="1384" type="curve"/>
      <point x="69" y="1231" type="line"/>
      <point x="198" y="1231" type="line"/>
    </contour>
    <contour>
      <point x="424" y="0" type="line"/>
      <point x="603" y="0" type="line"/>
      <point x="1181" y="1835" type="line"/>
      <point x="1001" y="1835" type="line"/>
    </contour>
    <contour>
      <point x="1068" y="-15" type="line"/>
      <point x="1615" y="-15" type="line"/>
      <point x="1615" y="144" type="line"/>
      <point x="1305" y="144" type="line"/>
      <point x="1344" y="195"/>
      <point x="1407" y="268"/>
      <point x="1466" y="347" type="curve" smooth="yes"/>
      <point x="1544" y="450"/>
      <point x="1615" y="562"/>
      <point x="1615" y="647" type="curve" smooth="yes"/>
      <point x="1615" y="817"/>
      <point x="1513" y="920"/>
      <point x="1342" y="920" type="curve" smooth="yes"/>
      <point x="1163" y="920"/>
      <point x="1068" y="806"/>
      <point x="1068" y="633" type="curve"/>
      <point x="1291" y="633" type="line"/>
      <point x="1291" y="671"/>
      <point x="1284" y="762"/>
      <point x="1342" y="762" type="curve" smooth="yes"/>
      <point x="1398" y="762"/>
      <point x="1392" y="684"/>
      <point x="1392" y="647" type="curve" smooth="yes"/>
      <point x="1392" y="598"/>
      <point x="1354" y="525"/>
      <point x="1304" y="447" type="curve" smooth="yes"/>
      <point x="1221" y="319"/>
      <point x="1104" y="180"/>
      <point x="1068" y="133" type="curve"/>
    </contour>
  </outline>
</glyph>
<glyph name="ae" format="1">
  <advance width="1427"/>
  <unicode hex="00E6"/>
  <outline>
    <contour>
      <point x="391" y="-29" type="curve" smooth="yes"/>
      <point x="502" y="-29"/>
      <point x="618" y="12"/>
      <point x="703" y="95" type="curve"/>
      <point x="766" y="16"/>
      <point x="858" y="-29"/>
      <point x="958" y="-29" type="curve" smooth="yes"/>
      <point x="1171" y="-29"/>
      <point x="1359" y="115"/>
      <point x="1359" y="339" type="curve" smooth="yes"/>
      <point x="1359" y="486" type="line"/>
      <point x="1025" y="486" type="line"/>
      <point x="1025" y="464"/>
      <point x="1028" y="425"/>
      <point x="1028" y="384" type="curve" smooth="yes"/>
      <point x="1028" y="313"/>
      <point x="1018" y="236"/>
      <point x="958" y="236" type="curve" smooth="yes"/>
      <point x="899" y="236"/>
      <point x="894" y="303"/>
      <point x="894" y="346" type="curve" smooth="yes"/>
      <point x="894" y="624" type="line"/>
      <point x="1359" y="624" type="line"/>
      <point x="1359" y="894" type="line" smooth="yes"/>
      <point x="1359" y="1162"/>
      <point x="1239" y="1335"/>
      <point x="958" y="1335" type="curve" smooth="yes"/>
      <point x="858" y="1335"/>
      <point x="779" y="1313"/>
      <point x="718" y="1273" type="curve"/>
      <point x="658" y="1312"/>
      <point x="587" y="1335"/>
      <point x="514" y="1335" type="curve" smooth="yes"/>
      <point x="225" y="1335"/>
      <point x="73" y="1167"/>
      <point x="73" y="869" type="curve"/>
      <point x="400" y="869" type="line"/>
      <point x="400" y="891"/>
      <point x="397" y="920"/>
      <point x="397" y="950" type="curve" smooth="yes"/>
      <point x="397" y="1009"/>
      <point x="408" y="1070"/>
      <point x="469" y="1070" type="curve" smooth="yes"/>
      <point x="549" y="1070"/>
      <point x="556" y="958"/>
      <point x="556" y="881" type="curve" smooth="yes"/>
      <point x="556" y="833" type="line"/>
      <point x="287" y="722"/>
      <point x="63" y="612"/>
      <point x="63" y="291" type="curve" smooth="yes"/>
      <point x="63" y="76"/>
      <point x="220" y="-29"/>
    </contour>
    <contour>
      <point x="557" y="310" type="line"/>
      <point x="534" y="281"/>
      <point x="504" y="240"/>
      <point x="459" y="240" type="curve" smooth="yes"/>
      <point x="405" y="240"/>
      <point x="391" y="293"/>
      <point x="391" y="337" type="curve" smooth="yes"/>
      <point x="391" y="443"/>
      <point x="469" y="518"/>
      <point x="556" y="576" type="curve"/>
    </contour>
    <contour>
      <point x="894" y="801" type="line"/>
      <point x="894" y="964" type="line" smooth="yes"/>
      <point x="894" y="1006"/>
      <point x="905" y="1063"/>
      <point x="958" y="1063" type="curve" smooth="yes"/>
      <point x="1013" y="1063"/>
      <point x="1025" y="1009"/>
      <point x="1025" y="964" type="curve" smooth="yes"/>
      <point x="1025" y="801" type="line"/>
    </contour>
  </outline>
</glyph>
<glyph name="OE" format="1">
  <advance width="1555"/>
  <unicode hex="0152"/>
  <outline>
    <contour>
      <point x="84" y="609" type="line" smooth="yes"/>
      <point x="84" y="256"/>
      <point x="213" y="1"/>
      <point x="610" y="1" type="curve" smooth="yes"/>
      <point x="1524" y="0" type="line"/>
      <point x="1524" y="250" type="line"/>
      <point x="1137" y="250" type="line"/>
      <point x="1137" y="804" type="line"/>
      <point x="1411" y="804" type="line"/>
      <point x="1411" y="1060" type="line"/>
      <point x="1137" y="1060" type="line"/>
      <point x="1137" y="1550" type="line"/>
      <point x="1524" y="1550" type="line"/>
      <point x="1524" y="1800" type="line"/>
      <point x="610" y="1799" type="line" smooth="yes"/>
      <point x="209" y="1798"/>
      <point x="84" y="1520"/>
      <point x="84" y="1180" type="curve" smooth="yes"/>
    </contour>
    <contour>
      <point x="610" y="253" type="line" smooth="yes"/>
      <point x="471" y="253"/>
      <point x="448" y="404"/>
      <point x="448" y="518" type="curve" smooth="yes"/>
      <point x="448" y="1271" type="line" smooth="yes"/>
      <point x="448" y="1384"/>
      <point x="472" y="1537"/>
      <point x="610" y="1537" type="curve" smooth="yes"/>
      <point x="773" y="1537" type="line"/>
      <point x="773" y="253" type="line"/>
    </contour>
  </outline>
</glyph>
<glyph name="dotlessj" format="1">
  <advance width="641"/>
  <unicode hex="0237"/>
  <outline>
    <contour>
      <point x="381" y="1305" type="move" name="top"/>
    </contour>
    <contour>
      <point x="48" y="-284" type="line"/>
      <point x="106" y="-299"/>
      <point x="167" y="-311"/>
      <point x="227" y="-311" type="curve" smooth="yes"/>
      <point x="438" y="-311"/>
      <point x="547" y="-179"/>
      <point x="547" y="26" type="curve" smooth="yes"/>
      <point x="547" y="1305" type="line"/>
      <point x="212" y="1305" type="line"/>
      <point x="212" y="55" type="line" smooth="yes"/>
      <point x="212" y="3"/>
      <point x="198" y="-56"/>
      <point x="136" y="-56" type="curve" smooth="yes"/>
      <point x="107" y="-56"/>
      <point x="76" y="-48"/>
      <point x="48" y="-40" type="curve"/>
    </contour>
  </outline>
</glyph>
<glyph name="uni0311" format="1">
  <advance width="728"/>
  <unicode hex="0311"/>
  <outline>
    <contour>
      <point x="347" y="1306" type="move" name="_top"/>
    </contour>
    <contour>
      <point x="267" y="1438" type="line"/>
      <point x="267" y="1487"/>
      <point x="286" y="1565"/>
      <point x="348" y="1565" type="curve" smooth="yes"/>
      <point x="410" y="1565"/>
      <point x="429" y="1487"/>
      <point x="429" y="1438" type="curve"/>
      <point x="601" y="1438" type="line"/>
      <point x="601" y="1586"/>
      <point x="495" y="1686"/>
      <point x="348" y="1686" type="curve" smooth="yes"/>
      <point x="201" y="1686"/>
      <point x="95" y="1586"/>
      <point x="95" y="1438" type="curve"/>
    </contour>
  </outline>
</glyph>
<glyph name="Delta" format="1">
  <advance width="1054"/>
  <unicode hex="2206"/>
  <outline>
    <contour>
      <point x="376" y="192" type="line"/>
      <point x="527" y="896" type="line"/>
      <point x="679" y="192" type="line"/>
    </contour>
    <contour>
      <point x="79" y="0" type="line"/>
      <point x="977" y="0" type="line"/>
      <point x="657" y="1280" type="line"/>
      <point x="399" y="1280" type="line"/>
    </contour>
  </outline>
</glyph>
<glyph name="Idotaccent.001" format="1">
  <advance width="572"/>
  <outline>
    <contour>
      <point x="123" y="1859" type="line"/>
      <point x="447" y="1859" type="line"/>
      <point x="447" y="2177" type="line"/>
      <point x="123" y="2177" type="line"/>
    </contour>
    <contour>
      <point x="123" y="0" type="line"/>
      <point x="447" y="0" type="line"/>
      <point x="447" y="1797" type="line"/>
      <point x="123" y="1797" type="line"/>
    </contour>
  </outline>
</glyph>
<glyph name=".notdef" format="1">
  <advance width="762"/>
  <outline>
    <contour>
      <point x="260" y="136" type="line"/>
      <point x="260" y="1255" type="line"/>
      <point x="505" y="1255" type="line"/>
      <point x="505" y="136" type="line"/>
    </contour>
    <contour>
      <point x="98" y="0" type="line"/>
      <point x="669" y="0" type="line"/>
      <point x="669" y="1389" type="line"/>
      <point x="98" y="1389" type="line"/>
    </contour>
  </outline>
</glyph>
